<?xml version="1.0" encoding="UTF-8"?>
<!DOCTYPE svg PUBLIC "-//W3C//DTD SVG 1.1//EN" "http://www.w3.org/Graphics/SVG/1.1/DTD/svg11.dtd">
<!-- Creator: CorelDRAW X6 -->
<svg xmlns="http://www.w3.org/2000/svg" xml:space="preserve" width="10.0694in" height="10.1806in" version="1.1" style="shape-rendering:geometricPrecision; text-rendering:geometricPrecision; image-rendering:optimizeQuality; fill-rule:evenodd; clip-rule:evenodd; fill-opacity: 0.2;"
viewBox="0 0 10069 10181"
 xmlns:xlink="http://www.w3.org/1999/xlink">
 <defs>
  <style type="text/css">
   <![CDATA[
    .fil0 {fill:#C1A876;fill-rule:nonzero}
   ]]>
  </style>
 </defs>
 <g id="Layer_x0020_1">
  <metadata id="CorelCorpID_0Corel-Layer"/>
  <polygon class="fil0" points="1050,2985 1050,3049 1638,3389 1750,3389 "/>
  <polygon class="fil0" points="1050,3124 1050,3188 1398,3389 1509,3389 "/>
  <polygon class="fil0" points="1986,2299 1986,2414 1892,2359 1836,2391 1986,2478 1986,2553 1771,2429 1716,2461 1986,2617 1986,2692 1651,2498 1595,2530 1986,2756 1986,2831 1531,2568 1475,2600 1986,2895 1986,2970 1410,2637 1355,2669 1986,3034 1986,3109 1290,2707 1234,2739 1986,3173 1986,3248 1169,2776 1114,2808 1986,3312 1986,3387 1050,2846 1050,2910 1879,3389 2014,3389 2014,2299 "/>
  <polygon class="fil0" points="1050,3263 1050,3327 1157,3389 1268,3389 "/>
  <polygon class="fil0" points="964,3188 964,3124 505,3389 616,3389 "/>
  <polygon class="fil0" points="964,3049 964,2985 264,3389 375,3389 "/>
  <polygon class="fil0" points="135,3389 964,2910 964,2846 28,3387 28,3312 900,2808 844,2776 28,3248 28,3173 780,2739 724,2707 28,3109 28,3034 659,2669 604,2637 28,2970 28,2895 539,2600 483,2568 28,2831 28,2756 419,2530 363,2498 28,2692 28,2617 298,2461 243,2429 28,2553 28,2478 178,2391 122,2359 28,2414 28,2299 0,2299 0,3389 "/>
  <polygon class="fil0" points="964,3263 746,3389 857,3389 964,3327 "/>
  <polygon class="fil0" points="1035,1614 1907,1110 1851,1078 1035,1550 1035,1475 1787,1041 1731,1009 1035,1411 1035,1336 1666,971 1611,939 1035,1272 1035,1197 1546,902 1490,870 1035,1133 1035,1058 1425,832 1370,800 1035,994 1035,919 1305,763 1250,731 1035,855 1035,780 1185,693 1129,661 1035,716 1035,601 979,601 979,716 885,661 829,693 979,780 979,855 764,731 709,763 979,919 979,994 644,800 588,832 979,1058 979,1133 524,870 468,902 979,1197 979,1272 403,939 348,971 979,1336 979,1411 283,1009 227,1041 979,1475 979,1550 163,1078 107,1110 979,1614 979,1689 43,1148 43,1212 979,1753 979,1828 43,1287 43,1351 979,1892 979,1967 43,1426 43,1490 979,2031 979,2106 43,1565 43,1629 979,2170 979,2245 43,1704 43,1768 979,2309 979,2384 43,1843 43,1907 979,2448 979,2522 43,1982 43,2046 979,2587 979,2661 43,2121 43,2185 979,2726 979,2781 1035,2781 1035,2726 1971,2185 1971,2121 1035,2661 1035,2587 1971,2046 1971,1982 1035,2522 1035,2448 1971,1907 1971,1843 1035,2384 1035,2309 1971,1768 1971,1704 1035,2245 1035,2170 1971,1629 1971,1565 1035,2106 1035,2031 1971,1490 1971,1426 1035,1967 1035,1892 1971,1351 1971,1287 1035,1828 1035,1753 1971,1212 1971,1148 1035,1689 "/>
  <polygon class="fil0" points="1879,-7 1986,55 1986,130 1750,-7 1638,-7 1986,194 1986,269 1509,-7 1398,-7 1986,333 1986,408 1268,-7 1157,-7 1986,472 1986,547 1050,6 1050,70 1986,611 1986,686 1050,145 1050,209 1986,750 1986,825 1050,284 1050,348 1986,889 1986,964 1050,423 1050,487 1986,1028 1986,1083 2014,1083 2014,-7 "/>
  <polygon class="fil0" points="28,1083 28,1028 964,487 964,423 28,964 28,889 964,348 964,284 28,825 28,750 964,209 964,145 28,686 28,611 964,70 964,6 28,547 28,472 857,-7 746,-7 28,408 28,333 616,-7 505,-7 28,269 28,194 375,-7 264,-7 28,130 28,55 135,-7 0,-7 0,1083 "/>
  <polygon class="fil0" points="3064,2985 3064,3049 3652,3389 3763,3389 "/>
  <polygon class="fil0" points="3064,3124 3064,3188 3412,3389 3523,3389 "/>
  <polygon class="fil0" points="4000,2299 4000,2414 3905,2359 3850,2391 4000,2478 4000,2553 3785,2429 3730,2461 4000,2617 4000,2692 3665,2498 3609,2530 4000,2756 4000,2831 3544,2568 3489,2600 4000,2895 4000,2970 3424,2637 3369,2669 4000,3034 4000,3109 3304,2707 3248,2739 4000,3173 4000,3248 3183,2776 3128,2808 4000,3312 4000,3387 3064,2846 3064,2910 3893,3389 4028,3389 4028,2299 "/>
  <polygon class="fil0" points="3064,3263 3064,3327 3171,3389 3282,3389 "/>
  <polygon class="fil0" points="2978,3188 2978,3124 2519,3389 2630,3389 "/>
  <polygon class="fil0" points="2978,3049 2978,2985 2278,3389 2389,3389 "/>
  <polygon class="fil0" points="2149,3389 2978,2910 2978,2846 2042,3387 2042,3312 2914,2808 2858,2776 2042,3248 2042,3173 2794,2739 2738,2707 2042,3109 2042,3034 2673,2669 2618,2637 2042,2970 2042,2895 2553,2600 2497,2568 2042,2831 2042,2756 2432,2530 2377,2498 2042,2692 2042,2617 2312,2461 2257,2429 2042,2553 2042,2478 2192,2391 2136,2359 2042,2414 2042,2299 2014,2299 2014,3389 "/>
  <polygon class="fil0" points="2978,3263 2760,3389 2871,3389 2978,3327 "/>
  <polygon class="fil0" points="3049,1614 3921,1110 3865,1078 3049,1550 3049,1475 3800,1041 3745,1009 3049,1411 3049,1336 3680,971 3625,939 3049,1272 3049,1197 3560,902 3504,870 3049,1133 3049,1058 3439,832 3384,800 3049,994 3049,919 3319,763 3263,731 3049,855 3049,780 3199,693 3143,661 3049,716 3049,601 2993,601 2993,716 2899,661 2843,693 2993,780 2993,855 2778,731 2723,763 2993,919 2993,994 2658,800 2602,832 2993,1058 2993,1133 2537,870 2482,902 2993,1197 2993,1272 2417,939 2362,971 2993,1336 2993,1411 2297,1009 2241,1041 2993,1475 2993,1550 2176,1078 2121,1110 2993,1614 2993,1689 2057,1148 2057,1212 2993,1753 2993,1828 2057,1287 2057,1351 2993,1892 2993,1967 2057,1426 2057,1490 2993,2031 2993,2106 2057,1565 2057,1629 2993,2170 2993,2245 2057,1704 2057,1768 2993,2309 2993,2384 2057,1843 2057,1907 2993,2448 2993,2522 2057,1982 2057,2046 2993,2587 2993,2661 2057,2121 2057,2185 2993,2726 2993,2781 3049,2781 3049,2726 3985,2185 3985,2121 3049,2661 3049,2587 3985,2046 3985,1982 3049,2522 3049,2448 3985,1907 3985,1843 3049,2384 3049,2309 3985,1768 3985,1704 3049,2245 3049,2170 3985,1629 3985,1565 3049,2106 3049,2031 3985,1490 3985,1426 3049,1967 3049,1892 3985,1351 3985,1287 3049,1828 3049,1753 3985,1212 3985,1148 3049,1689 "/>
  <polygon class="fil0" points="3893,-7 4000,55 4000,130 3763,-7 3652,-7 4000,194 4000,269 3523,-7 3412,-7 4000,333 4000,408 3282,-7 3171,-7 4000,472 4000,547 3064,6 3064,70 4000,611 4000,686 3064,145 3064,209 4000,750 4000,825 3064,284 3064,348 4000,889 4000,964 3064,423 3064,487 4000,1028 4000,1083 4028,1083 4028,-7 "/>
  <polygon class="fil0" points="2042,1083 2042,1028 2978,487 2978,423 2042,964 2042,889 2978,348 2978,284 2042,825 2042,750 2978,209 2978,145 2042,686 2042,611 2978,70 2978,6 2042,547 2042,472 2871,-7 2760,-7 2042,408 2042,333 2630,-7 2519,-7 2042,269 2042,194 2389,-7 2278,-7 2042,130 2042,55 2149,-7 2014,-7 2014,1083 "/>
  <polygon class="fil0" points="5078,2985 5078,3049 5666,3389 5777,3389 "/>
  <polygon class="fil0" points="5078,3124 5078,3188 5426,3389 5537,3389 "/>
  <polygon class="fil0" points="6014,2299 6014,2414 5919,2359 5864,2391 6014,2478 6014,2553 5799,2429 5743,2461 6014,2617 6014,2692 5679,2498 5623,2530 6014,2756 6014,2831 5558,2568 5503,2600 6014,2895 6014,2970 5438,2637 5382,2669 6014,3034 6014,3109 5318,2707 5262,2739 6014,3173 6014,3248 5197,2776 5142,2808 6014,3312 6014,3387 5078,2846 5078,2910 5907,3389 6042,3389 6042,2299 "/>
  <polygon class="fil0" points="5078,3263 5078,3327 5185,3389 5296,3389 "/>
  <polygon class="fil0" points="4992,3188 4992,3124 4533,3389 4644,3389 "/>
  <polygon class="fil0" points="4992,3049 4992,2985 4292,3389 4403,3389 "/>
  <polygon class="fil0" points="4163,3389 4992,2910 4992,2846 4056,3387 4056,3312 4928,2808 4872,2776 4056,3248 4056,3173 4807,2739 4752,2707 4056,3109 4056,3034 4687,2669 4631,2637 4056,2970 4056,2895 4567,2600 4511,2568 4056,2831 4056,2756 4446,2530 4391,2498 4056,2692 4056,2617 4326,2461 4270,2429 4056,2553 4056,2478 4206,2391 4150,2359 4056,2414 4056,2299 4028,2299 4028,3389 "/>
  <polygon class="fil0" points="4992,3263 4774,3389 4885,3389 4992,3327 "/>
  <polygon class="fil0" points="5063,1614 5935,1110 5879,1078 5063,1550 5063,1475 5814,1041 5759,1009 5063,1411 5063,1336 5694,971 5638,939 5063,1272 5063,1197 5574,902 5518,870 5063,1133 5063,1058 5453,832 5398,800 5063,994 5063,919 5333,763 5277,731 5063,855 5063,780 5213,693 5157,661 5063,716 5063,601 5007,601 5007,716 4912,661 4857,693 5007,780 5007,855 4792,731 4737,763 5007,919 5007,994 4672,800 4616,832 5007,1058 5007,1133 4551,870 4496,902 5007,1197 5007,1272 4431,939 4375,971 5007,1336 5007,1411 4311,1009 4255,1041 5007,1475 5007,1550 4190,1078 4135,1110 5007,1614 5007,1689 4071,1148 4071,1212 5007,1753 5007,1828 4071,1287 4071,1351 5007,1892 5007,1967 4071,1426 4071,1490 5007,2031 5007,2106 4071,1565 4071,1629 5007,2170 5007,2245 4071,1704 4071,1768 5007,2309 5007,2384 4071,1843 4071,1907 5007,2448 5007,2522 4071,1982 4071,2046 5007,2587 5007,2661 4071,2121 4071,2185 5007,2726 5007,2781 5063,2781 5063,2726 5999,2185 5999,2121 5063,2661 5063,2587 5999,2046 5999,1982 5063,2522 5063,2448 5999,1907 5999,1843 5063,2384 5063,2309 5999,1768 5999,1704 5063,2245 5063,2170 5999,1629 5999,1565 5063,2106 5063,2031 5999,1490 5999,1426 5063,1967 5063,1892 5999,1351 5999,1287 5063,1828 5063,1753 5999,1212 5999,1148 5063,1689 "/>
  <polygon class="fil0" points="5907,-7 6014,55 6014,130 5777,-7 5666,-7 6014,194 6014,269 5537,-7 5426,-7 6014,333 6014,408 5296,-7 5185,-7 6014,472 6014,547 5078,6 5078,70 6014,611 6014,686 5078,145 5078,209 6014,750 6014,825 5078,284 5078,348 6014,889 6014,964 5078,423 5078,487 6014,1028 6014,1083 6042,1083 6042,-7 "/>
  <polygon class="fil0" points="4056,1083 4056,1028 4992,487 4992,423 4056,964 4056,889 4992,348 4992,284 4056,825 4056,750 4992,209 4992,145 4056,686 4056,611 4992,70 4992,6 4056,547 4056,472 4885,-7 4774,-7 4056,408 4056,333 4644,-7 4533,-7 4056,269 4056,194 4403,-7 4292,-7 4056,130 4056,55 4163,-7 4028,-7 4028,1083 "/>
  <polygon class="fil0" points="7091,2985 7091,3049 7680,3389 7791,3389 "/>
  <polygon class="fil0" points="7091,3124 7091,3188 7439,3389 7551,3389 "/>
  <polygon class="fil0" points="8028,2299 8028,2414 7933,2359 7878,2391 8028,2478 8028,2553 7813,2429 7757,2461 8028,2617 8028,2692 7693,2498 7637,2530 8028,2756 8028,2831 7572,2568 7517,2600 8028,2895 8028,2970 7452,2637 7396,2669 8028,3034 8028,3109 7331,2707 7276,2739 8028,3173 8028,3248 7211,2776 7156,2808 8028,3312 8028,3387 7091,2846 7091,2910 7921,3389 8056,3389 8056,2299 "/>
  <polygon class="fil0" points="7091,3263 7091,3327 7199,3389 7310,3389 "/>
  <polygon class="fil0" points="7006,3188 7006,3124 6547,3389 6658,3389 "/>
  <polygon class="fil0" points="7006,3049 7006,2985 6306,3389 6417,3389 "/>
  <polygon class="fil0" points="6176,3389 7006,2910 7006,2846 6069,3387 6069,3312 6942,2808 6886,2776 6069,3248 6069,3173 6821,2739 6766,2707 6069,3109 6069,3034 6701,2669 6645,2637 6069,2970 6069,2895 6581,2600 6525,2568 6069,2831 6069,2756 6460,2530 6405,2498 6069,2692 6069,2617 6340,2461 6284,2429 6069,2553 6069,2478 6220,2391 6164,2359 6069,2414 6069,2299 6042,2299 6042,3389 "/>
  <polygon class="fil0" points="7006,3263 6787,3389 6899,3389 7006,3327 "/>
  <polygon class="fil0" points="7076,1614 7949,1110 7893,1078 7076,1550 7076,1475 7828,1041 7773,1009 7076,1411 7076,1336 7708,971 7652,939 7076,1272 7076,1197 7588,902 7532,870 7076,1133 7076,1058 7467,832 7412,800 7076,994 7076,919 7347,763 7291,731 7076,855 7076,780 7226,693 7171,661 7076,716 7076,601 7021,601 7021,716 6926,661 6871,693 7021,780 7021,855 6806,731 6750,763 7021,919 7021,994 6686,800 6630,832 7021,1058 7021,1133 6565,870 6510,902 7021,1197 7021,1272 6445,939 6389,971 7021,1336 7021,1411 6325,1009 6269,1041 7021,1475 7021,1550 6204,1078 6149,1110 7021,1614 7021,1689 6084,1148 6084,1212 7021,1753 7021,1828 6084,1287 6084,1351 7021,1892 7021,1967 6084,1426 6084,1490 7021,2031 7021,2106 6084,1565 6084,1629 7021,2170 7021,2245 6084,1704 6084,1768 7021,2309 7021,2384 6084,1843 6084,1907 7021,2448 7021,2522 6084,1982 6084,2046 7021,2587 7021,2661 6084,2121 6084,2185 7021,2726 7021,2781 7076,2781 7076,2726 8013,2185 8013,2121 7076,2661 7076,2587 8013,2046 8013,1982 7076,2522 7076,2448 8013,1907 8013,1843 7076,2384 7076,2309 8013,1768 8013,1704 7076,2245 7076,2170 8013,1629 8013,1565 7076,2106 7076,2031 8013,1490 8013,1426 7076,1967 7076,1892 8013,1351 8013,1287 7076,1828 7076,1753 8013,1212 8013,1148 7076,1689 "/>
  <polygon class="fil0" points="7921,-7 8028,55 8028,130 7791,-7 7680,-7 8028,194 8028,269 7551,-7 7439,-7 8028,333 8028,408 7310,-7 7199,-7 8028,472 8028,547 7091,6 7091,70 8028,611 8028,686 7091,145 7091,209 8028,750 8028,825 7091,284 7091,348 8028,889 8028,964 7091,423 7091,487 8028,1028 8028,1083 8056,1083 8056,-7 "/>
  <polygon class="fil0" points="6069,1083 6069,1028 7006,487 7006,423 6069,964 6069,889 7006,348 7006,284 6069,825 6069,750 7006,209 7006,145 6069,686 6069,611 7006,70 7006,6 6069,547 6069,472 6899,-7 6787,-7 6069,408 6069,333 6658,-7 6547,-7 6069,269 6069,194 6417,-7 6306,-7 6069,130 6069,55 6176,-7 6042,-7 6042,1083 "/>
  <polygon class="fil0" points="1050,6381 1050,6445 1638,6785 1750,6785 "/>
  <polygon class="fil0" points="1050,6520 1050,6584 1398,6785 1509,6785 "/>
  <polygon class="fil0" points="1986,5694 1986,5810 1892,5755 1836,5787 1986,5874 1986,5948 1771,5824 1716,5857 1986,6013 1986,6087 1651,5894 1595,5926 1986,6152 1986,6226 1531,5963 1475,5995 1986,6291 1986,6365 1410,6033 1355,6065 1986,6430 1986,6504 1290,6102 1234,6134 1986,6569 1986,6643 1169,6172 1114,6204 1986,6708 1986,6782 1050,6242 1050,6306 1879,6785 2014,6785 2014,5694 "/>
  <polygon class="fil0" points="1050,6659 1050,6723 1157,6785 1268,6785 "/>
  <polygon class="fil0" points="964,6584 964,6520 505,6785 616,6785 "/>
  <polygon class="fil0" points="964,6445 964,6381 264,6785 375,6785 "/>
  <polygon class="fil0" points="135,6785 964,6306 964,6242 28,6782 28,6708 900,6204 844,6172 28,6643 28,6569 780,6134 724,6102 28,6504 28,6430 659,6065 604,6033 28,6365 28,6291 539,5995 483,5963 28,6226 28,6152 419,5926 363,5894 28,6087 28,6013 298,5857 243,5824 28,5948 28,5874 178,5787 122,5755 28,5810 28,5694 0,5694 0,6785 "/>
  <polygon class="fil0" points="964,6659 746,6785 857,6785 964,6723 "/>
  <polygon class="fil0" points="1035,5010 1907,4506 1851,4474 1035,4945 1035,4871 1787,4437 1731,4404 1035,4806 1035,4732 1666,4367 1611,4335 1035,4667 1035,4593 1546,4298 1490,4265 1035,4529 1035,4454 1425,4228 1370,4196 1035,4390 1035,4315 1305,4159 1250,4127 1035,4251 1035,4176 1185,4089 1129,4057 1035,4112 1035,3997 979,3997 979,4112 885,4057 829,4089 979,4176 979,4251 764,4127 709,4159 979,4315 979,4390 644,4196 588,4228 979,4454 979,4529 524,4265 468,4298 979,4593 979,4667 403,4335 348,4367 979,4732 979,4806 283,4404 227,4437 979,4871 979,4945 163,4474 107,4506 979,5010 979,5084 43,4544 43,4608 979,5149 979,5223 43,4683 43,4747 979,5288 979,5362 43,4822 43,4886 979,5427 979,5501 43,4961 43,5025 979,5566 979,5640 43,5100 43,5164 979,5704 979,5779 43,5239 43,5303 979,5843 979,5918 43,5378 43,5442 979,5982 979,6057 43,5517 43,5581 979,6121 979,6177 1035,6177 1035,6121 1971,5581 1971,5517 1035,6057 1035,5982 1971,5442 1971,5378 1035,5918 1035,5843 1971,5303 1971,5239 1035,5779 1035,5704 1971,5164 1971,5100 1035,5640 1035,5566 1971,5025 1971,4961 1035,5501 1035,5427 1971,4886 1971,4822 1035,5362 1035,5288 1971,4747 1971,4683 1035,5223 1035,5149 1971,4608 1971,4544 1035,5084 "/>
  <polygon class="fil0" points="1879,3389 1986,3451 1986,3525 1750,3389 1638,3389 1986,3590 1986,3664 1509,3389 1398,3389 1986,3729 1986,3803 1268,3389 1157,3389 1986,3868 1986,3942 1050,3402 1050,3466 1986,4007 1986,4081 1050,3541 1050,3605 1986,4146 1986,4220 1050,3680 1050,3744 1986,4285 1986,4359 1050,3819 1050,3883 1986,4423 1986,4479 2014,4479 2014,3389 "/>
  <polygon class="fil0" points="28,4479 28,4423 964,3883 964,3819 28,4359 28,4285 964,3744 964,3680 28,4220 28,4146 964,3605 964,3541 28,4081 28,4007 964,3466 964,3402 28,3942 28,3868 857,3389 746,3389 28,3803 28,3729 616,3389 505,3389 28,3664 28,3590 375,3389 264,3389 28,3525 28,3451 135,3389 0,3389 0,4479 "/>
  <polygon class="fil0" points="3064,6381 3064,6445 3652,6785 3763,6785 "/>
  <polygon class="fil0" points="3064,6520 3064,6584 3412,6785 3523,6785 "/>
  <polygon class="fil0" points="4000,5694 4000,5810 3905,5755 3850,5787 4000,5874 4000,5948 3785,5824 3730,5857 4000,6013 4000,6087 3665,5894 3609,5926 4000,6152 4000,6226 3544,5963 3489,5995 4000,6291 4000,6365 3424,6033 3369,6065 4000,6430 4000,6504 3304,6102 3248,6134 4000,6569 4000,6643 3183,6172 3128,6204 4000,6708 4000,6782 3064,6242 3064,6306 3893,6785 4028,6785 4028,5694 "/>
  <polygon class="fil0" points="3064,6659 3064,6723 3171,6785 3282,6785 "/>
  <polygon class="fil0" points="2978,6584 2978,6520 2519,6785 2630,6785 "/>
  <polygon class="fil0" points="2978,6445 2978,6381 2278,6785 2389,6785 "/>
  <polygon class="fil0" points="2149,6785 2978,6306 2978,6242 2042,6782 2042,6708 2914,6204 2858,6172 2042,6643 2042,6569 2794,6134 2738,6102 2042,6504 2042,6430 2673,6065 2618,6033 2042,6365 2042,6291 2553,5995 2497,5963 2042,6226 2042,6152 2432,5926 2377,5894 2042,6087 2042,6013 2312,5857 2257,5824 2042,5948 2042,5874 2192,5787 2136,5755 2042,5810 2042,5694 2014,5694 2014,6785 "/>
  <polygon class="fil0" points="2978,6659 2760,6785 2871,6785 2978,6723 "/>
  <polygon class="fil0" points="3049,5010 3921,4506 3865,4474 3049,4945 3049,4871 3800,4437 3745,4404 3049,4806 3049,4732 3680,4367 3625,4335 3049,4667 3049,4593 3560,4298 3504,4265 3049,4529 3049,4454 3439,4228 3384,4196 3049,4390 3049,4315 3319,4159 3263,4127 3049,4251 3049,4176 3199,4089 3143,4057 3049,4112 3049,3997 2993,3997 2993,4112 2899,4057 2843,4089 2993,4176 2993,4251 2778,4127 2723,4159 2993,4315 2993,4390 2658,4196 2602,4228 2993,4454 2993,4529 2537,4265 2482,4298 2993,4593 2993,4667 2417,4335 2362,4367 2993,4732 2993,4806 2297,4404 2241,4437 2993,4871 2993,4945 2176,4474 2121,4506 2993,5010 2993,5084 2057,4544 2057,4608 2993,5149 2993,5223 2057,4683 2057,4747 2993,5288 2993,5362 2057,4822 2057,4886 2993,5427 2993,5501 2057,4961 2057,5025 2993,5566 2993,5640 2057,5100 2057,5164 2993,5704 2993,5779 2057,5239 2057,5303 2993,5843 2993,5918 2057,5378 2057,5442 2993,5982 2993,6057 2057,5517 2057,5581 2993,6121 2993,6177 3049,6177 3049,6121 3985,5581 3985,5517 3049,6057 3049,5982 3985,5442 3985,5378 3049,5918 3049,5843 3985,5303 3985,5239 3049,5779 3049,5704 3985,5164 3985,5100 3049,5640 3049,5566 3985,5025 3985,4961 3049,5501 3049,5427 3985,4886 3985,4822 3049,5362 3049,5288 3985,4747 3985,4683 3049,5223 3049,5149 3985,4608 3985,4544 3049,5084 "/>
  <polygon class="fil0" points="3893,3389 4000,3451 4000,3525 3763,3389 3652,3389 4000,3590 4000,3664 3523,3389 3412,3389 4000,3729 4000,3803 3282,3389 3171,3389 4000,3868 4000,3942 3064,3402 3064,3466 4000,4007 4000,4081 3064,3541 3064,3605 4000,4146 4000,4220 3064,3680 3064,3744 4000,4285 4000,4359 3064,3819 3064,3883 4000,4423 4000,4479 4028,4479 4028,3389 "/>
  <polygon class="fil0" points="2042,4479 2042,4423 2978,3883 2978,3819 2042,4359 2042,4285 2978,3744 2978,3680 2042,4220 2042,4146 2978,3605 2978,3541 2042,4081 2042,4007 2978,3466 2978,3402 2042,3942 2042,3868 2871,3389 2760,3389 2042,3803 2042,3729 2630,3389 2519,3389 2042,3664 2042,3590 2389,3389 2278,3389 2042,3525 2042,3451 2149,3389 2014,3389 2014,4479 "/>
  <polygon class="fil0" points="5078,6381 5078,6445 5666,6785 5777,6785 "/>
  <polygon class="fil0" points="5078,6520 5078,6584 5426,6785 5537,6785 "/>
  <polygon class="fil0" points="6014,5694 6014,5810 5919,5755 5864,5787 6014,5874 6014,5948 5799,5824 5743,5857 6014,6013 6014,6087 5679,5894 5623,5926 6014,6152 6014,6226 5558,5963 5503,5995 6014,6291 6014,6365 5438,6033 5382,6065 6014,6430 6014,6504 5318,6102 5262,6134 6014,6569 6014,6643 5197,6172 5142,6204 6014,6708 6014,6782 5078,6242 5078,6306 5907,6785 6042,6785 6042,5694 "/>
  <polygon class="fil0" points="5078,6659 5078,6723 5185,6785 5296,6785 "/>
  <polygon class="fil0" points="4992,6584 4992,6520 4533,6785 4644,6785 "/>
  <polygon class="fil0" points="4992,6445 4992,6381 4292,6785 4403,6785 "/>
  <polygon class="fil0" points="4163,6785 4992,6306 4992,6242 4056,6782 4056,6708 4928,6204 4872,6172 4056,6643 4056,6569 4807,6134 4752,6102 4056,6504 4056,6430 4687,6065 4631,6033 4056,6365 4056,6291 4567,5995 4511,5963 4056,6226 4056,6152 4446,5926 4391,5894 4056,6087 4056,6013 4326,5857 4270,5824 4056,5948 4056,5874 4206,5787 4150,5755 4056,5810 4056,5694 4028,5694 4028,6785 "/>
  <polygon class="fil0" points="4992,6659 4774,6785 4885,6785 4992,6723 "/>
  <polygon class="fil0" points="5063,5010 5935,4506 5879,4474 5063,4945 5063,4871 5814,4437 5759,4404 5063,4806 5063,4732 5694,4367 5638,4335 5063,4667 5063,4593 5574,4298 5518,4265 5063,4529 5063,4454 5453,4228 5398,4196 5063,4390 5063,4315 5333,4159 5277,4127 5063,4251 5063,4176 5213,4089 5157,4057 5063,4112 5063,3997 5007,3997 5007,4112 4912,4057 4857,4089 5007,4176 5007,4251 4792,4127 4737,4159 5007,4315 5007,4390 4672,4196 4616,4228 5007,4454 5007,4529 4551,4265 4496,4298 5007,4593 5007,4667 4431,4335 4375,4367 5007,4732 5007,4806 4311,4404 4255,4437 5007,4871 5007,4945 4190,4474 4135,4506 5007,5010 5007,5084 4071,4544 4071,4608 5007,5149 5007,5223 4071,4683 4071,4747 5007,5288 5007,5362 4071,4822 4071,4886 5007,5427 5007,5501 4071,4961 4071,5025 5007,5566 5007,5640 4071,5100 4071,5164 5007,5704 5007,5779 4071,5239 4071,5303 5007,5843 5007,5918 4071,5378 4071,5442 5007,5982 5007,6057 4071,5517 4071,5581 5007,6121 5007,6177 5063,6177 5063,6121 5999,5581 5999,5517 5063,6057 5063,5982 5999,5442 5999,5378 5063,5918 5063,5843 5999,5303 5999,5239 5063,5779 5063,5704 5999,5164 5999,5100 5063,5640 5063,5566 5999,5025 5999,4961 5063,5501 5063,5427 5999,4886 5999,4822 5063,5362 5063,5288 5999,4747 5999,4683 5063,5223 5063,5149 5999,4608 5999,4544 5063,5084 "/>
  <polygon class="fil0" points="5907,3389 6014,3451 6014,3525 5777,3389 5666,3389 6014,3590 6014,3664 5537,3389 5426,3389 6014,3729 6014,3803 5296,3389 5185,3389 6014,3868 6014,3942 5078,3402 5078,3466 6014,4007 6014,4081 5078,3541 5078,3605 6014,4146 6014,4220 5078,3680 5078,3744 6014,4285 6014,4359 5078,3819 5078,3883 6014,4423 6014,4479 6042,4479 6042,3389 "/>
  <polygon class="fil0" points="4056,4479 4056,4423 4992,3883 4992,3819 4056,4359 4056,4285 4992,3744 4992,3680 4056,4220 4056,4146 4992,3605 4992,3541 4056,4081 4056,4007 4992,3466 4992,3402 4056,3942 4056,3868 4885,3389 4774,3389 4056,3803 4056,3729 4644,3389 4533,3389 4056,3664 4056,3590 4403,3389 4292,3389 4056,3525 4056,3451 4163,3389 4028,3389 4028,4479 "/>
  <polygon class="fil0" points="7091,6381 7091,6445 7680,6785 7791,6785 "/>
  <polygon class="fil0" points="7091,6520 7091,6584 7439,6785 7551,6785 "/>
  <polygon class="fil0" points="8028,5694 8028,5810 7933,5755 7878,5787 8028,5874 8028,5948 7813,5824 7757,5857 8028,6013 8028,6087 7693,5894 7637,5926 8028,6152 8028,6226 7572,5963 7517,5995 8028,6291 8028,6365 7452,6033 7396,6065 8028,6430 8028,6504 7331,6102 7276,6134 8028,6569 8028,6643 7211,6172 7156,6204 8028,6708 8028,6782 7091,6242 7091,6306 7921,6785 8056,6785 8056,5694 "/>
  <polygon class="fil0" points="7091,6659 7091,6723 7199,6785 7310,6785 "/>
  <polygon class="fil0" points="7006,6584 7006,6520 6547,6785 6658,6785 "/>
  <polygon class="fil0" points="7006,6445 7006,6381 6306,6785 6417,6785 "/>
  <polygon class="fil0" points="6176,6785 7006,6306 7006,6242 6069,6782 6069,6708 6942,6204 6886,6172 6069,6643 6069,6569 6821,6134 6766,6102 6069,6504 6069,6430 6701,6065 6645,6033 6069,6365 6069,6291 6581,5995 6525,5963 6069,6226 6069,6152 6460,5926 6405,5894 6069,6087 6069,6013 6340,5857 6284,5824 6069,5948 6069,5874 6220,5787 6164,5755 6069,5810 6069,5694 6042,5694 6042,6785 "/>
  <polygon class="fil0" points="7006,6659 6787,6785 6899,6785 7006,6723 "/>
  <polygon class="fil0" points="7076,5010 7949,4506 7893,4474 7076,4945 7076,4871 7828,4437 7773,4404 7076,4806 7076,4732 7708,4367 7652,4335 7076,4667 7076,4593 7588,4298 7532,4265 7076,4529 7076,4454 7467,4228 7412,4196 7076,4390 7076,4315 7347,4159 7291,4127 7076,4251 7076,4176 7226,4089 7171,4057 7076,4112 7076,3997 7021,3997 7021,4112 6926,4057 6871,4089 7021,4176 7021,4251 6806,4127 6750,4159 7021,4315 7021,4390 6686,4196 6630,4228 7021,4454 7021,4529 6565,4265 6510,4298 7021,4593 7021,4667 6445,4335 6389,4367 7021,4732 7021,4806 6325,4404 6269,4437 7021,4871 7021,4945 6204,4474 6149,4506 7021,5010 7021,5084 6084,4544 6084,4608 7021,5149 7021,5223 6084,4683 6084,4747 7021,5288 7021,5362 6084,4822 6084,4886 7021,5427 7021,5501 6084,4961 6084,5025 7021,5566 7021,5640 6084,5100 6084,5164 7021,5704 7021,5779 6084,5239 6084,5303 7021,5843 7021,5918 6084,5378 6084,5442 7021,5982 7021,6057 6084,5517 6084,5581 7021,6121 7021,6177 7076,6177 7076,6121 8013,5581 8013,5517 7076,6057 7076,5982 8013,5442 8013,5378 7076,5918 7076,5843 8013,5303 8013,5239 7076,5779 7076,5704 8013,5164 8013,5100 7076,5640 7076,5566 8013,5025 8013,4961 7076,5501 7076,5427 8013,4886 8013,4822 7076,5362 7076,5288 8013,4747 8013,4683 7076,5223 7076,5149 8013,4608 8013,4544 7076,5084 "/>
  <polygon class="fil0" points="7921,3389 8028,3451 8028,3525 7791,3389 7680,3389 8028,3590 8028,3664 7551,3389 7439,3389 8028,3729 8028,3803 7310,3389 7199,3389 8028,3868 8028,3942 7091,3402 7091,3466 8028,4007 8028,4081 7091,3541 7091,3605 8028,4146 8028,4220 7091,3680 7091,3744 8028,4285 8028,4359 7091,3819 7091,3883 8028,4423 8028,4479 8056,4479 8056,3389 "/>
  <polygon class="fil0" points="6069,4479 6069,4423 7006,3883 7006,3819 6069,4359 6069,4285 7006,3744 7006,3680 6069,4220 6069,4146 7006,3605 7006,3541 6069,4081 6069,4007 7006,3466 7006,3402 6069,3942 6069,3868 6899,3389 6787,3389 6069,3803 6069,3729 6658,3389 6547,3389 6069,3664 6069,3590 6417,3389 6306,3389 6069,3525 6069,3451 6176,3389 6042,3389 6042,4479 "/>
  <polygon class="fil0" points="1050,9777 1050,9841 1638,10181 1750,10181 "/>
  <polygon class="fil0" points="1050,9916 1050,9980 1398,10181 1509,10181 "/>
  <polygon class="fil0" points="1986,9090 1986,9205 1892,9151 1836,9183 1986,9269 1986,9344 1771,9220 1716,9252 1986,9408 1986,9483 1651,9290 1595,9322 1986,9547 1986,9622 1531,9359 1475,9391 1986,9686 1986,9761 1410,9429 1355,9461 1986,9825 1986,9900 1290,9498 1234,9530 1986,9964 1986,10039 1169,9568 1114,9600 1986,10103 1986,10178 1050,9638 1050,9702 1879,10181 2014,10181 2014,9090 "/>
  <polygon class="fil0" points="1050,10054 1050,10119 1157,10181 1268,10181 "/>
  <polygon class="fil0" points="964,9980 964,9916 505,10181 616,10181 "/>
  <polygon class="fil0" points="964,9841 964,9777 264,10181 375,10181 "/>
  <polygon class="fil0" points="135,10181 964,9702 964,9638 28,10178 28,10103 900,9600 844,9568 28,10039 28,9964 780,9530 724,9498 28,9900 28,9825 659,9461 604,9429 28,9761 28,9686 539,9391 483,9359 28,9622 28,9547 419,9322 363,9290 28,9483 28,9408 298,9252 243,9220 28,9344 28,9269 178,9183 122,9151 28,9205 28,9090 0,9090 0,10181 "/>
  <polygon class="fil0" points="964,10054 746,10181 857,10181 964,10119 "/>
  <polygon class="fil0" points="1035,8405 1907,7902 1851,7870 1035,8341 1035,8266 1787,7832 1731,7800 1035,8202 1035,8127 1666,7763 1611,7731 1035,8063 1035,7988 1546,7693 1490,7661 1035,7924 1035,7849 1425,7624 1370,7592 1035,7785 1035,7711 1305,7554 1250,7522 1035,7646 1035,7572 1185,7485 1129,7453 1035,7507 1035,7392 979,7392 979,7507 885,7453 829,7485 979,7572 979,7646 764,7522 709,7554 979,7711 979,7785 644,7592 588,7624 979,7849 979,7924 524,7661 468,7693 979,7988 979,8063 403,7731 348,7763 979,8127 979,8202 283,7800 227,7832 979,8266 979,8341 163,7870 107,7902 979,8405 979,8480 43,7940 43,8004 979,8544 979,8619 43,8079 43,8143 979,8683 979,8758 43,8218 43,8282 979,8822 979,8897 43,8357 43,8421 979,8961 979,9036 43,8496 43,8560 979,9100 979,9175 43,8635 43,8699 979,9239 979,9314 43,8773 43,8838 979,9378 979,9453 43,8912 43,8977 979,9517 979,9573 1035,9573 1035,9517 1971,8977 1971,8912 1035,9453 1035,9378 1971,8838 1971,8773 1035,9314 1035,9239 1971,8699 1971,8635 1035,9175 1035,9100 1971,8560 1971,8496 1035,9036 1035,8961 1971,8421 1971,8357 1035,8897 1035,8822 1971,8282 1971,8218 1035,8758 1035,8683 1971,8143 1971,8079 1035,8619 1035,8544 1971,8004 1971,7940 1035,8480 "/>
  <polygon class="fil0" points="1879,6785 1986,6846 1986,6921 1750,6785 1638,6785 1986,6985 1986,7060 1509,6785 1398,6785 1986,7124 1986,7199 1268,6785 1157,6785 1986,7263 1986,7338 1050,6798 1050,6862 1986,7402 1986,7477 1050,6937 1050,7001 1986,7541 1986,7616 1050,7076 1050,7140 1986,7680 1986,7755 1050,7215 1050,7279 1986,7819 1986,7875 2014,7875 2014,6785 "/>
  <polygon class="fil0" points="28,7875 28,7819 964,7279 964,7215 28,7755 28,7680 964,7140 964,7076 28,7616 28,7541 964,7001 964,6937 28,7477 28,7402 964,6862 964,6798 28,7338 28,7263 857,6785 746,6785 28,7199 28,7124 616,6785 505,6785 28,7060 28,6985 375,6785 264,6785 28,6921 28,6846 135,6785 0,6785 0,7875 "/>
  <polygon class="fil0" points="3064,9777 3064,9841 3652,10181 3763,10181 "/>
  <polygon class="fil0" points="3064,9916 3064,9980 3412,10181 3523,10181 "/>
  <polygon class="fil0" points="4000,9090 4000,9205 3905,9151 3850,9183 4000,9269 4000,9344 3785,9220 3730,9252 4000,9408 4000,9483 3665,9290 3609,9322 4000,9547 4000,9622 3544,9359 3489,9391 4000,9686 4000,9761 3424,9429 3369,9461 4000,9825 4000,9900 3304,9498 3248,9530 4000,9964 4000,10039 3183,9568 3128,9600 4000,10103 4000,10178 3064,9638 3064,9702 3893,10181 4028,10181 4028,9090 "/>
  <polygon class="fil0" points="3064,10054 3064,10119 3171,10181 3282,10181 "/>
  <polygon class="fil0" points="2978,9980 2978,9916 2519,10181 2630,10181 "/>
  <polygon class="fil0" points="2978,9841 2978,9777 2278,10181 2389,10181 "/>
  <polygon class="fil0" points="2149,10181 2978,9702 2978,9638 2042,10178 2042,10103 2914,9600 2858,9568 2042,10039 2042,9964 2794,9530 2738,9498 2042,9900 2042,9825 2673,9461 2618,9429 2042,9761 2042,9686 2553,9391 2497,9359 2042,9622 2042,9547 2432,9322 2377,9290 2042,9483 2042,9408 2312,9252 2257,9220 2042,9344 2042,9269 2192,9183 2136,9151 2042,9205 2042,9090 2014,9090 2014,10181 "/>
  <polygon class="fil0" points="2978,10054 2760,10181 2871,10181 2978,10119 "/>
  <polygon class="fil0" points="3049,8405 3921,7902 3865,7870 3049,8341 3049,8266 3800,7832 3745,7800 3049,8202 3049,8127 3680,7763 3625,7731 3049,8063 3049,7988 3560,7693 3504,7661 3049,7924 3049,7849 3439,7624 3384,7592 3049,7785 3049,7711 3319,7554 3263,7522 3049,7646 3049,7572 3199,7485 3143,7453 3049,7507 3049,7392 2993,7392 2993,7507 2899,7453 2843,7485 2993,7572 2993,7646 2778,7522 2723,7554 2993,7711 2993,7785 2658,7592 2602,7624 2993,7849 2993,7924 2537,7661 2482,7693 2993,7988 2993,8063 2417,7731 2362,7763 2993,8127 2993,8202 2297,7800 2241,7832 2993,8266 2993,8341 2176,7870 2121,7902 2993,8405 2993,8480 2057,7940 2057,8004 2993,8544 2993,8619 2057,8079 2057,8143 2993,8683 2993,8758 2057,8218 2057,8282 2993,8822 2993,8897 2057,8357 2057,8421 2993,8961 2993,9036 2057,8496 2057,8560 2993,9100 2993,9175 2057,8635 2057,8699 2993,9239 2993,9314 2057,8773 2057,8838 2993,9378 2993,9453 2057,8912 2057,8977 2993,9517 2993,9573 3049,9573 3049,9517 3985,8977 3985,8912 3049,9453 3049,9378 3985,8838 3985,8773 3049,9314 3049,9239 3985,8699 3985,8635 3049,9175 3049,9100 3985,8560 3985,8496 3049,9036 3049,8961 3985,8421 3985,8357 3049,8897 3049,8822 3985,8282 3985,8218 3049,8758 3049,8683 3985,8143 3985,8079 3049,8619 3049,8544 3985,8004 3985,7940 3049,8480 "/>
  <polygon class="fil0" points="3893,6785 4000,6846 4000,6921 3763,6785 3652,6785 4000,6985 4000,7060 3523,6785 3412,6785 4000,7124 4000,7199 3282,6785 3171,6785 4000,7263 4000,7338 3064,6798 3064,6862 4000,7402 4000,7477 3064,6937 3064,7001 4000,7541 4000,7616 3064,7076 3064,7140 4000,7680 4000,7755 3064,7215 3064,7279 4000,7819 4000,7875 4028,7875 4028,6785 "/>
  <polygon class="fil0" points="2042,7875 2042,7819 2978,7279 2978,7215 2042,7755 2042,7680 2978,7140 2978,7076 2042,7616 2042,7541 2978,7001 2978,6937 2042,7477 2042,7402 2978,6862 2978,6798 2042,7338 2042,7263 2871,6785 2760,6785 2042,7199 2042,7124 2630,6785 2519,6785 2042,7060 2042,6985 2389,6785 2278,6785 2042,6921 2042,6846 2149,6785 2014,6785 2014,7875 "/>
  <polygon class="fil0" points="5078,9777 5078,9841 5666,10181 5777,10181 "/>
  <polygon class="fil0" points="5078,9916 5078,9980 5426,10181 5537,10181 "/>
  <polygon class="fil0" points="6014,9090 6014,9205 5919,9151 5864,9183 6014,9269 6014,9344 5799,9220 5743,9252 6014,9408 6014,9483 5679,9290 5623,9322 6014,9547 6014,9622 5558,9359 5503,9391 6014,9686 6014,9761 5438,9429 5382,9461 6014,9825 6014,9900 5318,9498 5262,9530 6014,9964 6014,10039 5197,9568 5142,9600 6014,10103 6014,10178 5078,9638 5078,9702 5907,10181 6042,10181 6042,9090 "/>
  <polygon class="fil0" points="5078,10054 5078,10119 5185,10181 5296,10181 "/>
  <polygon class="fil0" points="4992,9980 4992,9916 4533,10181 4644,10181 "/>
  <polygon class="fil0" points="4992,9841 4992,9777 4292,10181 4403,10181 "/>
  <polygon class="fil0" points="4163,10181 4992,9702 4992,9638 4056,10178 4056,10103 4928,9600 4872,9568 4056,10039 4056,9964 4807,9530 4752,9498 4056,9900 4056,9825 4687,9461 4631,9429 4056,9761 4056,9686 4567,9391 4511,9359 4056,9622 4056,9547 4446,9322 4391,9290 4056,9483 4056,9408 4326,9252 4270,9220 4056,9344 4056,9269 4206,9183 4150,9151 4056,9205 4056,9090 4028,9090 4028,10181 "/>
  <polygon class="fil0" points="4992,10054 4774,10181 4885,10181 4992,10119 "/>
  <polygon class="fil0" points="5063,8405 5935,7902 5879,7870 5063,8341 5063,8266 5814,7832 5759,7800 5063,8202 5063,8127 5694,7763 5638,7731 5063,8063 5063,7988 5574,7693 5518,7661 5063,7924 5063,7849 5453,7624 5398,7592 5063,7785 5063,7711 5333,7554 5277,7522 5063,7646 5063,7572 5213,7485 5157,7453 5063,7507 5063,7392 5007,7392 5007,7507 4912,7453 4857,7485 5007,7572 5007,7646 4792,7522 4737,7554 5007,7711 5007,7785 4672,7592 4616,7624 5007,7849 5007,7924 4551,7661 4496,7693 5007,7988 5007,8063 4431,7731 4375,7763 5007,8127 5007,8202 4311,7800 4255,7832 5007,8266 5007,8341 4190,7870 4135,7902 5007,8405 5007,8480 4071,7940 4071,8004 5007,8544 5007,8619 4071,8079 4071,8143 5007,8683 5007,8758 4071,8218 4071,8282 5007,8822 5007,8897 4071,8357 4071,8421 5007,8961 5007,9036 4071,8496 4071,8560 5007,9100 5007,9175 4071,8635 4071,8699 5007,9239 5007,9314 4071,8773 4071,8838 5007,9378 5007,9453 4071,8912 4071,8977 5007,9517 5007,9573 5063,9573 5063,9517 5999,8977 5999,8912 5063,9453 5063,9378 5999,8838 5999,8773 5063,9314 5063,9239 5999,8699 5999,8635 5063,9175 5063,9100 5999,8560 5999,8496 5063,9036 5063,8961 5999,8421 5999,8357 5063,8897 5063,8822 5999,8282 5999,8218 5063,8758 5063,8683 5999,8143 5999,8079 5063,8619 5063,8544 5999,8004 5999,7940 5063,8480 "/>
  <polygon class="fil0" points="5907,6785 6014,6846 6014,6921 5777,6785 5666,6785 6014,6985 6014,7060 5537,6785 5426,6785 6014,7124 6014,7199 5296,6785 5185,6785 6014,7263 6014,7338 5078,6798 5078,6862 6014,7402 6014,7477 5078,6937 5078,7001 6014,7541 6014,7616 5078,7076 5078,7140 6014,7680 6014,7755 5078,7215 5078,7279 6014,7819 6014,7875 6042,7875 6042,6785 "/>
  <polygon class="fil0" points="4056,7875 4056,7819 4992,7279 4992,7215 4056,7755 4056,7680 4992,7140 4992,7076 4056,7616 4056,7541 4992,7001 4992,6937 4056,7477 4056,7402 4992,6862 4992,6798 4056,7338 4056,7263 4885,6785 4774,6785 4056,7199 4056,7124 4644,6785 4533,6785 4056,7060 4056,6985 4403,6785 4292,6785 4056,6921 4056,6846 4163,6785 4028,6785 4028,7875 "/>
  <polygon class="fil0" points="7091,9777 7091,9841 7680,10181 7791,10181 "/>
  <polygon class="fil0" points="7091,9916 7091,9980 7439,10181 7551,10181 "/>
  <polygon class="fil0" points="8028,9090 8028,9205 7933,9151 7878,9183 8028,9269 8028,9344 7813,9220 7757,9252 8028,9408 8028,9483 7693,9290 7637,9322 8028,9547 8028,9622 7572,9359 7517,9391 8028,9686 8028,9761 7452,9429 7396,9461 8028,9825 8028,9900 7331,9498 7276,9530 8028,9964 8028,10039 7211,9568 7156,9600 8028,10103 8028,10178 7091,9638 7091,9702 7921,10181 8056,10181 8056,9090 "/>
  <polygon class="fil0" points="7091,10054 7091,10119 7199,10181 7310,10181 "/>
  <polygon class="fil0" points="7006,9980 7006,9916 6547,10181 6658,10181 "/>
  <polygon class="fil0" points="7006,9841 7006,9777 6306,10181 6417,10181 "/>
  <polygon class="fil0" points="6176,10181 7006,9702 7006,9638 6069,10178 6069,10103 6942,9600 6886,9568 6069,10039 6069,9964 6821,9530 6766,9498 6069,9900 6069,9825 6701,9461 6645,9429 6069,9761 6069,9686 6581,9391 6525,9359 6069,9622 6069,9547 6460,9322 6405,9290 6069,9483 6069,9408 6340,9252 6284,9220 6069,9344 6069,9269 6220,9183 6164,9151 6069,9205 6069,9090 6042,9090 6042,10181 "/>
  <polygon class="fil0" points="7006,10054 6787,10181 6899,10181 7006,10119 "/>
  <polygon class="fil0" points="7076,8405 7949,7902 7893,7870 7076,8341 7076,8266 7828,7832 7773,7800 7076,8202 7076,8127 7708,7763 7652,7731 7076,8063 7076,7988 7588,7693 7532,7661 7076,7924 7076,7849 7467,7624 7412,7592 7076,7785 7076,7711 7347,7554 7291,7522 7076,7646 7076,7572 7226,7485 7171,7453 7076,7507 7076,7392 7021,7392 7021,7507 6926,7453 6871,7485 7021,7572 7021,7646 6806,7522 6750,7554 7021,7711 7021,7785 6686,7592 6630,7624 7021,7849 7021,7924 6565,7661 6510,7693 7021,7988 7021,8063 6445,7731 6389,7763 7021,8127 7021,8202 6325,7800 6269,7832 7021,8266 7021,8341 6204,7870 6149,7902 7021,8405 7021,8480 6084,7940 6084,8004 7021,8544 7021,8619 6084,8079 6084,8143 7021,8683 7021,8758 6084,8218 6084,8282 7021,8822 7021,8897 6084,8357 6084,8421 7021,8961 7021,9036 6084,8496 6084,8560 7021,9100 7021,9175 6084,8635 6084,8699 7021,9239 7021,9314 6084,8773 6084,8838 7021,9378 7021,9453 6084,8912 6084,8977 7021,9517 7021,9573 7076,9573 7076,9517 8013,8977 8013,8912 7076,9453 7076,9378 8013,8838 8013,8773 7076,9314 7076,9239 8013,8699 8013,8635 7076,9175 7076,9100 8013,8560 8013,8496 7076,9036 7076,8961 8013,8421 8013,8357 7076,8897 7076,8822 8013,8282 8013,8218 7076,8758 7076,8683 8013,8143 8013,8079 7076,8619 7076,8544 8013,8004 8013,7940 7076,8480 "/>
  <polygon class="fil0" points="7921,6785 8028,6846 8028,6921 7791,6785 7680,6785 8028,6985 8028,7060 7551,6785 7439,6785 8028,7124 8028,7199 7310,6785 7199,6785 8028,7263 8028,7338 7091,6798 7091,6862 8028,7402 8028,7477 7091,6937 7091,7001 8028,7541 8028,7616 7091,7076 7091,7140 8028,7680 8028,7755 7091,7215 7091,7279 8028,7819 8028,7875 8056,7875 8056,6785 "/>
  <polygon class="fil0" points="6069,7875 6069,7819 7006,7279 7006,7215 6069,7755 6069,7680 7006,7140 7006,7076 6069,7616 6069,7541 7006,7001 7006,6937 6069,7477 6069,7402 7006,6862 7006,6798 6069,7338 6069,7263 6899,6785 6787,6785 6069,7199 6069,7124 6658,6785 6547,6785 6069,7060 6069,6985 6417,6785 6306,6785 6069,6921 6069,6846 6176,6785 6042,6785 6042,7875 "/>
  <polygon class="fil0" points="9105,2985 9105,3049 9694,3389 9805,3389 "/>
  <polygon class="fil0" points="9105,3124 9105,3188 9453,3389 9564,3389 "/>
  <polygon class="fil0" points="10042,2299 10042,2414 9947,2359 9892,2391 10042,2478 10042,2553 9827,2429 9771,2461 10042,2617 10042,2692 9706,2498 9651,2530 10042,2756 10042,2831 9586,2568 9531,2600 10042,2895 10042,2970 9466,2637 9410,2669 10042,3034 10042,3109 9345,2707 9290,2739 10042,3173 10042,3248 9225,2776 9169,2808 10042,3312 10042,3387 9105,2846 9105,2910 9935,3389 10069,3389 10069,2299 "/>
  <polygon class="fil0" points="9105,3263 9105,3327 9213,3389 9324,3389 "/>
  <polygon class="fil0" points="9020,3188 9020,3124 8561,3389 8672,3389 "/>
  <polygon class="fil0" points="9020,3049 9020,2985 8320,3389 8431,3389 "/>
  <polygon class="fil0" points="8190,3389 9020,2910 9020,2846 8083,3387 8083,3312 8956,2808 8900,2776 8083,3248 8083,3173 8835,2739 8780,2707 8083,3109 8083,3034 8715,2669 8659,2637 8083,2970 8083,2895 8594,2600 8539,2568 8083,2831 8083,2756 8474,2530 8419,2498 8083,2692 8083,2617 8354,2461 8298,2429 8083,2553 8083,2478 8233,2391 8178,2359 8083,2414 8083,2299 8056,2299 8056,3389 "/>
  <polygon class="fil0" points="9020,3263 8801,3389 8912,3389 9020,3327 "/>
  <polygon class="fil0" points="9090,1614 9963,1110 9907,1078 9090,1550 9090,1475 9842,1041 9787,1009 9090,1411 9090,1336 9722,971 9666,939 9090,1272 9090,1197 9601,902 9546,870 9090,1133 9090,1058 9481,832 9426,800 9090,994 9090,919 9361,763 9305,731 9090,855 9090,780 9240,693 9185,661 9090,716 9090,601 9035,601 9035,716 8940,661 8885,693 9035,780 9035,855 8820,731 8764,763 9035,919 9035,994 8700,800 8644,832 9035,1058 9035,1133 8579,870 8524,902 9035,1197 9035,1272 8459,939 8403,971 9035,1336 9035,1411 8338,1009 8283,1041 9035,1475 9035,1550 8218,1078 8163,1110 9035,1614 9035,1689 8098,1148 8098,1212 9035,1753 9035,1828 8098,1287 8098,1351 9035,1892 9035,1967 8098,1426 8098,1490 9035,2031 9035,2106 8098,1565 8098,1629 9035,2170 9035,2245 8098,1704 8098,1768 9035,2309 9035,2384 8098,1843 8098,1907 9035,2448 9035,2522 8098,1982 8098,2046 9035,2587 9035,2661 8098,2121 8098,2185 9035,2726 9035,2781 9090,2781 9090,2726 10027,2185 10027,2121 9090,2661 9090,2587 10027,2046 10027,1982 9090,2522 9090,2448 10027,1907 10027,1843 9090,2384 9090,2309 10027,1768 10027,1704 9090,2245 9090,2170 10027,1629 10027,1565 9090,2106 9090,2031 10027,1490 10027,1426 9090,1967 9090,1892 10027,1351 10027,1287 9090,1828 9090,1753 10027,1212 10027,1148 9090,1689 "/>
  <polygon class="fil0" points="9935,-7 10042,55 10042,130 9805,-7 9694,-7 10042,194 10042,269 9564,-7 9453,-7 10042,333 10042,408 9324,-7 9213,-7 10042,472 10042,547 9105,6 9105,70 10042,611 10042,686 9105,145 9105,209 10042,750 10042,825 9105,284 9105,348 10042,889 10042,964 9105,423 9105,487 10042,1028 10042,1083 10069,1083 10069,-7 "/>
  <polygon class="fil0" points="8083,1083 8083,1028 9020,487 9020,423 8083,964 8083,889 9020,348 9020,284 8083,825 8083,750 9020,209 9020,145 8083,686 8083,611 9020,70 9020,6 8083,547 8083,472 8912,-7 8801,-7 8083,408 8083,333 8672,-7 8561,-7 8083,269 8083,194 8431,-7 8320,-7 8083,130 8083,55 8190,-7 8056,-7 8056,1083 "/>
  <polygon class="fil0" points="9105,6381 9105,6445 9694,6785 9805,6785 "/>
  <polygon class="fil0" points="9105,6520 9105,6584 9453,6785 9564,6785 "/>
  <polygon class="fil0" points="10042,5694 10042,5810 9947,5755 9892,5787 10042,5874 10042,5948 9827,5824 9771,5857 10042,6013 10042,6087 9706,5894 9651,5926 10042,6152 10042,6226 9586,5963 9531,5995 10042,6291 10042,6365 9466,6033 9410,6065 10042,6430 10042,6504 9345,6102 9290,6134 10042,6569 10042,6643 9225,6172 9169,6204 10042,6708 10042,6782 9105,6242 9105,6306 9935,6785 10069,6785 10069,5694 "/>
  <polygon class="fil0" points="9105,6659 9105,6723 9213,6785 9324,6785 "/>
  <polygon class="fil0" points="9020,6584 9020,6520 8561,6785 8672,6785 "/>
  <polygon class="fil0" points="9020,6445 9020,6381 8320,6785 8431,6785 "/>
  <polygon class="fil0" points="8190,6785 9020,6306 9020,6242 8083,6782 8083,6708 8956,6204 8900,6172 8083,6643 8083,6569 8835,6134 8780,6102 8083,6504 8083,6430 8715,6065 8659,6033 8083,6365 8083,6291 8594,5995 8539,5963 8083,6226 8083,6152 8474,5926 8419,5894 8083,6087 8083,6013 8354,5857 8298,5824 8083,5948 8083,5874 8233,5787 8178,5755 8083,5810 8083,5694 8056,5694 8056,6785 "/>
  <polygon class="fil0" points="9020,6659 8801,6785 8912,6785 9020,6723 "/>
  <polygon class="fil0" points="9090,5010 9963,4506 9907,4474 9090,4945 9090,4871 9842,4437 9787,4404 9090,4806 9090,4732 9722,4367 9666,4335 9090,4667 9090,4593 9601,4298 9546,4265 9090,4529 9090,4454 9481,4228 9426,4196 9090,4390 9090,4315 9361,4159 9305,4127 9090,4251 9090,4176 9240,4089 9185,4057 9090,4112 9090,3997 9035,3997 9035,4112 8940,4057 8885,4089 9035,4176 9035,4251 8820,4127 8764,4159 9035,4315 9035,4390 8700,4196 8644,4228 9035,4454 9035,4529 8579,4265 8524,4298 9035,4593 9035,4667 8459,4335 8403,4367 9035,4732 9035,4806 8338,4404 8283,4437 9035,4871 9035,4945 8218,4474 8163,4506 9035,5010 9035,5084 8098,4544 8098,4608 9035,5149 9035,5223 8098,4683 8098,4747 9035,5288 9035,5362 8098,4822 8098,4886 9035,5427 9035,5501 8098,4961 8098,5025 9035,5566 9035,5640 8098,5100 8098,5164 9035,5704 9035,5779 8098,5239 8098,5303 9035,5843 9035,5918 8098,5378 8098,5442 9035,5982 9035,6057 8098,5517 8098,5581 9035,6121 9035,6177 9090,6177 9090,6121 10027,5581 10027,5517 9090,6057 9090,5982 10027,5442 10027,5378 9090,5918 9090,5843 10027,5303 10027,5239 9090,5779 9090,5704 10027,5164 10027,5100 9090,5640 9090,5566 10027,5025 10027,4961 9090,5501 9090,5427 10027,4886 10027,4822 9090,5362 9090,5288 10027,4747 10027,4683 9090,5223 9090,5149 10027,4608 10027,4544 9090,5084 "/>
  <polygon class="fil0" points="9935,3389 10042,3451 10042,3525 9805,3389 9694,3389 10042,3590 10042,3664 9564,3389 9453,3389 10042,3729 10042,3803 9324,3389 9213,3389 10042,3868 10042,3942 9105,3402 9105,3466 10042,4007 10042,4081 9105,3541 9105,3605 10042,4146 10042,4220 9105,3680 9105,3744 10042,4285 10042,4359 9105,3819 9105,3883 10042,4423 10042,4479 10069,4479 10069,3389 "/>
  <polygon class="fil0" points="8083,4479 8083,4423 9020,3883 9020,3819 8083,4359 8083,4285 9020,3744 9020,3680 8083,4220 8083,4146 9020,3605 9020,3541 8083,4081 8083,4007 9020,3466 9020,3402 8083,3942 8083,3868 8912,3389 8801,3389 8083,3803 8083,3729 8672,3389 8561,3389 8083,3664 8083,3590 8431,3389 8320,3389 8083,3525 8083,3451 8190,3389 8056,3389 8056,4479 "/>
  <polygon class="fil0" points="9105,9777 9105,9841 9694,10181 9805,10181 "/>
  <polygon class="fil0" points="9105,9916 9105,9980 9453,10181 9564,10181 "/>
  <polygon class="fil0" points="10042,9090 10042,9205 9947,9151 9892,9183 10042,9269 10042,9344 9827,9220 9771,9252 10042,9408 10042,9483 9706,9290 9651,9322 10042,9547 10042,9622 9586,9359 9531,9391 10042,9686 10042,9761 9466,9429 9410,9461 10042,9825 10042,9900 9345,9498 9290,9530 10042,9964 10042,10039 9225,9568 9169,9600 10042,10103 10042,10178 9105,9638 9105,9702 9935,10181 10069,10181 10069,9090 "/>
  <polygon class="fil0" points="9105,10054 9105,10119 9213,10181 9324,10181 "/>
  <polygon class="fil0" points="9020,9980 9020,9916 8561,10181 8672,10181 "/>
  <polygon class="fil0" points="9020,9841 9020,9777 8320,10181 8431,10181 "/>
  <polygon class="fil0" points="8190,10181 9020,9702 9020,9638 8083,10178 8083,10103 8956,9600 8900,9568 8083,10039 8083,9964 8835,9530 8780,9498 8083,9900 8083,9825 8715,9461 8659,9429 8083,9761 8083,9686 8594,9391 8539,9359 8083,9622 8083,9547 8474,9322 8419,9290 8083,9483 8083,9408 8354,9252 8298,9220 8083,9344 8083,9269 8233,9183 8178,9151 8083,9205 8083,9090 8056,9090 8056,10181 "/>
  <polygon class="fil0" points="9020,10054 8801,10181 8912,10181 9020,10119 "/>
  <polygon class="fil0" points="9090,8405 9963,7902 9907,7870 9090,8341 9090,8266 9842,7832 9787,7800 9090,8202 9090,8127 9722,7763 9666,7731 9090,8063 9090,7988 9601,7693 9546,7661 9090,7924 9090,7849 9481,7624 9426,7592 9090,7785 9090,7711 9361,7554 9305,7522 9090,7646 9090,7572 9240,7485 9185,7453 9090,7507 9090,7392 9035,7392 9035,7507 8940,7453 8885,7485 9035,7572 9035,7646 8820,7522 8764,7554 9035,7711 9035,7785 8700,7592 8644,7624 9035,7849 9035,7924 8579,7661 8524,7693 9035,7988 9035,8063 8459,7731 8403,7763 9035,8127 9035,8202 8338,7800 8283,7832 9035,8266 9035,8341 8218,7870 8163,7902 9035,8405 9035,8480 8098,7940 8098,8004 9035,8544 9035,8619 8098,8079 8098,8143 9035,8683 9035,8758 8098,8218 8098,8282 9035,8822 9035,8897 8098,8357 8098,8421 9035,8961 9035,9036 8098,8496 8098,8560 9035,9100 9035,9175 8098,8635 8098,8699 9035,9239 9035,9314 8098,8773 8098,8838 9035,9378 9035,9453 8098,8912 8098,8977 9035,9517 9035,9573 9090,9573 9090,9517 10027,8977 10027,8912 9090,9453 9090,9378 10027,8838 10027,8773 9090,9314 9090,9239 10027,8699 10027,8635 9090,9175 9090,9100 10027,8560 10027,8496 9090,9036 9090,8961 10027,8421 10027,8357 9090,8897 9090,8822 10027,8282 10027,8218 9090,8758 9090,8683 10027,8143 10027,8079 9090,8619 9090,8544 10027,8004 10027,7940 9090,8480 "/>
  <polygon class="fil0" points="9935,6785 10042,6846 10042,6921 9805,6785 9694,6785 10042,6985 10042,7060 9564,6785 9453,6785 10042,7124 10042,7199 9324,6785 9213,6785 10042,7263 10042,7338 9105,6798 9105,6862 10042,7402 10042,7477 9105,6937 9105,7001 10042,7541 10042,7616 9105,7076 9105,7140 10042,7680 10042,7755 9105,7215 9105,7279 10042,7819 10042,7875 10069,7875 10069,6785 "/>
  <polygon class="fil0" points="8083,7875 8083,7819 9020,7279 9020,7215 8083,7755 8083,7680 9020,7140 9020,7076 8083,7616 8083,7541 9020,7001 9020,6937 8083,7477 8083,7402 9020,6862 9020,6798 8083,7338 8083,7263 8912,6785 8801,6785 8083,7199 8083,7124 8672,6785 8561,6785 8083,7060 8083,6985 8431,6785 8320,6785 8083,6921 8083,6846 8190,6785 8056,6785 8056,7875 "/>
 </g>
</svg>
